<svg width="420" height="420" viewBox="0 0 420 420" fill="none" xmlns="http://www.w3.org/2000/svg">
<path d="M385 210C385 113.575 306.425 35 210 35C113.575 35 35 113.575 35 210C35 260.75 56.875 306.425 91.525 338.45C91.525 338.625 91.525 338.625 91.35 338.8C93.1 340.55 95.2 341.95 96.95 343.525C98 344.4 98.875 345.275 99.925 345.975C103.075 348.6 106.575 351.05 109.9 353.5L113.4 355.95C116.725 358.225 120.225 360.325 123.9 362.25C125.125 362.95 126.525 363.825 127.75 364.525C131.25 366.45 134.925 368.2 138.775 369.775C140.175 370.475 141.575 371.175 142.975 371.7C146.825 373.275 150.675 374.675 154.525 375.9C155.925 376.425 157.325 376.95 158.725 377.3C162.925 378.525 167.125 379.575 171.325 380.625C172.55 380.975 173.775 381.325 175.175 381.5C180.075 382.55 184.975 383.25 190.05 383.775C190.75 383.775 191.45 383.95 192.15 384.125C198.1 384.65 204.05 385 210 385C215.95 385 221.9 384.65 227.675 384.125C228.375 384.125 229.075 383.95 229.775 383.775C234.85 383.25 239.75 382.55 244.65 381.5C245.875 381.325 247.1 380.8 248.5 380.625C252.7 379.575 257.075 378.7 261.1 377.3C262.5 376.775 263.9 376.25 265.3 375.9C269.15 374.5 273.175 373.275 276.85 371.7C278.25 371.175 279.65 370.475 281.05 369.775C284.725 368.2 288.4 366.45 292.075 364.525C293.475 363.825 294.7 362.95 295.925 362.25C299.425 360.15 302.925 358.225 306.425 355.95C307.65 355.25 308.7 354.375 309.925 353.5C313.425 351.05 316.75 348.6 319.9 345.975C320.95 345.1 321.825 344.225 322.875 343.525C324.8 341.95 326.725 340.375 328.475 338.8C328.475 338.625 328.475 338.625 328.3 338.45C363.125 306.425 385 260.75 385 210ZM296.45 296.975C249.025 265.125 171.325 265.125 123.55 296.975C115.85 302.05 109.55 308 104.3 314.475C76.7342 286.69 61.2612 249.139 61.25 210C61.25 127.925 127.925 61.25 210 61.25C292.075 61.25 358.75 127.925 358.75 210C358.75 250.6 342.3 287.525 315.7 314.475C310.625 308 304.15 302.05 296.45 296.975Z" fill="#365DC0"/>
<path d="M210 121.275C173.775 121.275 144.375 150.675 144.375 186.9C144.375 222.425 172.2 251.3 209.125 252.35H212.275C229.262 251.791 245.368 244.652 257.189 232.439C269.01 220.226 275.621 203.897 275.625 186.9C275.625 150.675 246.225 121.275 210 121.275Z" fill="#365DC0"/>
</svg>
